# xmcd
#
# Track frame offsets:
#	150
#	16342
#	33482
#	44861
#	61915
#	79213
#	91181
#	105965
#	126021
#	139181
#	150265
#	160932
#	174947
#	190923
#	209126
#	225828
#	240511
#
# Disc length: 3559 seconds
#
# Revision: 0
# Processed by: cddbd v1.5.2PL0 Copyright (c) Steve Scherf et al.
# Submitted via: audiograbber 1.83.01
#
DISCID=d20de511
DTITLE=Todd Fritsch - Sawdust
DYEAR=2007
DGENRE=Country
TTITLE0=What's Wrong With Me
TTITLE1=The Rock
TTITLE2=No Part Of
TTITLE3=All That's Left Is You
TTITLE4=So This Is Love
TTITLE5=Guilty Conscience
TTITLE6=If You Don't Like Country (Time To Leave)
TTITLE7=Life's A Circle
TTITLE8=Texas Talkin'
TTITLE9=Five Mornings Down
TTITLE10=Honky Tonk Talk
TTITLE11=Tequila Tells (feat. Eddy Raven)
TTITLE12=Tables
TTITLE13=A Walk To Remember
TTITLE14=Every Honky Tonkin' Hero (Has His Day) (feat. Gary P.Nunn)
TTITLE15=First Date (For The Last Time)
TTITLE16=Little Joe The Wrangler
EXTD=
EXTT0=
EXTT1=
EXTT2=
EXTT3=
EXTT4=
EXTT5=
EXTT6=
EXTT7=
EXTT8=
EXTT9=
EXTT10=
EXTT11=
EXTT12=
EXTT13=
EXTT14=
EXTT15=
EXTT16=
PLAYORDER=
